# xmcd
#
# Track frame offsets: 
#        187
#        19835
#        35057
#        52155
#        67407
#        86510
#        102572
#        120375
#        139475
#        155770
#        176107
#        195140
#        211777
#        230882
#        248615
#        262485
#        281235
#        300332
#
# Disc length: 4249 seconds
#
# Revision: 0
# Processed by: cddbd v1.5.2PL0 Copyright (c) Steve Scherf et al.
# Submitted via: ExactAudioCopy v0.95b4
#
DISCID=18109712
DTITLE=Johnnie Taylor - Best Of Johnnie Taylor On Malao 
DYEAR=1988
DGENRE=R&B
TTITLE0=This is your night
TTITLE1=Lday, my whole world is you
TTITLE2=L.O.V.E.
TTITLE3=A love to call mine
TTITLE4=Good with my hips
TTITLE5=She's cheating on me
TTITLE6=Wall to wall
TTITLE7=I'm changing
TTITLE8=No refund
TTITLE9=After hours joint
TTITLE10=Nothing as beautiful as you
TTITLE11=There's nothing I wouldn't do
TTITLE12=383-emergency
TTITLE13=Lover boy
TTITLE14=You can't win
TTITLE15=If I lose your love
TTITLE16=Nothing like a lady
TTITLE17=Happy time
EXTD=
EXTT0=
EXTT1=
EXTT2=
EXTT3=
EXTT4=
EXTT5=
EXTT6=
EXTT7=
EXTT8=
EXTT9=
EXTT10=
EXTT11=
EXTT12=
EXTT13=
EXTT14=
EXTT15=
EXTT16=
EXTT17=
PLAYORDER=
